<?xml version="1.0" encoding="UTF-8"?>
<svg width="181px" height="263px" viewBox="0 0 181 263" version="1.1" xmlns="http://www.w3.org/2000/svg" xmlns:xlink="http://www.w3.org/1999/xlink">
    <!-- Generator: Sketch 52.5 (67469) - http://www.bohemiancoding.com/sketch -->
    <title>Q</title>
    <desc>Created with Sketch.</desc>
    <g id="Page-1" stroke="none" stroke-width="1" fill="none" fill-rule="evenodd">
        <g id="Artboard" transform="translate(-498.000000, -96.000000)" stroke="#0A1D8F">
            <path d="M642.787944,321.986459 L642.787944,358.232229 L615.311311,358.232229 C583.742415,358.232229 570.004098,343.03239 570.004098,314.971149 L570.004098,306.494315 C526.450713,298.602091 498.97408,263.233234 498.97408,202.433878 C498.97408,133.157687 534.635242,96.9119169 588.711593,96.9119169 C642.787944,96.9119169 678.449105,133.157687 678.449105,202.433878 C678.449105,261.479407 652.7263,296.555959 611.511352,305.617401 L611.511352,321.986459 L642.787944,321.986459 Z M588.711593,268.494717 C615.311311,268.494717 631.388064,250.079527 631.388064,217.633717 L631.388064,187.234038 C631.388064,154.788228 615.311311,136.373038 588.711593,136.373038 C562.111874,136.373038 546.035121,154.788228 546.035121,187.234038 L546.035121,217.633717 C546.035121,250.079527 562.111874,268.494717 588.711593,268.494717 Z" id="Q"></path>
        </g>
    </g>
</svg>